<?xml version="1.0" encoding="utf-8" standalone="yes"?>
<!DOCTYPE svg PUBLIC "-//W3C//DTD SVG 1.1//EN" "http://www.w3.org/Graphics/SVG/1.1/DTD/svg11.dtd">
<svg width="570" height="292" viewBox="0 0 570 292" style="fill:none;stroke:none;fill-rule:evenodd;clip-rule:evenodd;stroke-linecap:round;stroke-linejoin:round;stroke-miterlimit:1.5;" version="1.1" xmlns="http://www.w3.org/2000/svg" xmlns:xlink="http://www.w3.org/1999/xlink"><style id="fontImports">@import url("https://fonts.googleapis.com/css2?family=Roboto:wght@400;700&amp;display=block");</style><rect id="" x="0" y="0" width="570" height="291.005" style="fill: #ffffff;"></rect><g id="items" style="isolation: isolate"><g id="blend" style="mix-blend-mode:normal"><g id="g-root-5.cu_sy_qp1cbu1muxq11-fill" data-item-order="999968324" data-item-id="5.cu_sy_qp1cbu1muxq11" data-item-class="Part Indexed Stroke ColorStrokeBlack" data-item-index="5" data-renderer-id="0" transform="translate(188, 153.99996948242188)"></g><g id="g-root-5.cu_sy_qp1cbu1muxq11-fill" data-item-order="999968324" data-item-id="5.cu_sy_qp1cbu1muxq11" data-item-class="Part Indexed Stroke ColorStrokeBlack" data-item-index="5" data-renderer-id="0" transform="translate(188, 153.99996948242188)"></g><g id="g-root-4.cu_sy_v4uuga1muxp8s-fill" data-item-order="999968325" data-item-id="4.cu_sy_v4uuga1muxp8s" data-item-class="Part Indexed Fill Stroke ColorFillGray ColorStrokeBlack" data-item-index="4" data-renderer-id="0" transform="translate(260, 164.99996948242188)"></g><g id="g-root-4.cu_sy_v4uuga1muxp8s-fill" data-item-order="999968325" data-item-id="4.cu_sy_v4uuga1muxp8s" data-item-class="Part Indexed Fill Stroke ColorFillGray ColorStrokeBlack" data-item-index="4" data-renderer-id="0" transform="translate(260, 164.99996948242188)"></g><g id="g-root-3.cu_sy_v4uuga1muxp8r-fill" data-item-order="999968327" data-item-id="3.cu_sy_v4uuga1muxp8r" data-item-class="Part Indexed Fill Stroke ColorFillGray ColorStrokeBlack" data-item-index="3" data-renderer-id="0" transform="translate(224, 186.32601928710938)"></g><g id="g-root-3.cu_sy_v4uuga1muxp8r-fill" data-item-order="999968327" data-item-id="3.cu_sy_v4uuga1muxp8r" data-item-class="Part Indexed Fill Stroke ColorFillGray ColorStrokeBlack" data-item-index="3" data-renderer-id="0" transform="translate(224, 186.32601928710938)"></g><g id="g-root-2.right-bucket_sy_v4uuga1muxp8q-fill" data-item-order="999968329" data-item-id="2.right-bucket_sy_v4uuga1muxp8q" data-item-class="Part Indexed Fill Stroke ColorStrokeBlack" data-item-index="2" data-renderer-id="0" transform="translate(320, 134.99996948242188)"></g><g id="g-root-2.right-bucket_sy_v4uuga1muxp8q-fill" data-item-order="999968329" data-item-id="2.right-bucket_sy_v4uuga1muxp8q" data-item-class="Part Indexed Fill Stroke ColorStrokeBlack" data-item-index="2" data-renderer-id="0" transform="translate(320, 134.99996948242188)"></g><g id="g-root-1.left-bucket_sy_140hup61muxog1-fill" data-item-order="999968331" data-item-id="1.left-bucket_sy_140hup61muxog1" data-item-class="Part Indexed Indexed_1 Fill Stroke ColorStrokeBlack" data-item-index="1" data-renderer-id="0" transform="translate(152, 134.99996948242188)"></g><g id="g-root-1.left-bucket_sy_140hup61muxog1-fill" data-item-order="999968331" data-item-id="1.left-bucket_sy_140hup61muxog1" data-item-class="Part Indexed Indexed_1 Fill Stroke ColorStrokeBlack" data-item-index="1" data-renderer-id="0" transform="translate(152, 134.99996948242188)"></g><g id="g-root-2_1lr5e3u1muz3f0-fill" data-item-order="1000000000" data-item-id="2_1lr5e3u1muz3f0" data-item-class="Icon Stroke Indexed ColorStrokeBlack" data-item-index="3" data-renderer-id="0" transform="translate(164, 74.99996948242188)"></g><g id="g-root-2_1lr5e3u1muz3f0-fill" data-item-order="1000000000" data-item-id="2_1lr5e3u1muz3f0" data-item-class="Icon Stroke Indexed ColorStrokeBlack" data-item-index="3" data-renderer-id="0" transform="translate(164, 74.99996948242188)"></g><g id="g-root-1_1hbbvze1muz479-fill" data-item-order="1000000000" data-item-id="1_1hbbvze1muz479" data-item-class="Icon Stroke Indexed ColorStrokeBlack" data-item-index="6" data-renderer-id="0" transform="translate(332, 74.99996948242188)"></g><g id="g-root-1_1hbbvze1muz479-fill" data-item-order="1000000000" data-item-id="1_1hbbvze1muz479" data-item-class="Icon Stroke Indexed ColorStrokeBlack" data-item-index="6" data-renderer-id="0" transform="translate(332, 74.99996948242188)"></g><g id="g-root-tx_automati_1lr5e3u1muxp8k-fill" data-item-order="1000000000" data-item-id="tx_automati_1lr5e3u1muxp8k" data-item-class="Label Stroke Indexed ColorStrokeBlack" data-item-index="6" data-renderer-id="0" transform="translate(392, 74.99996948242188)"><g id="tx_automati_1lr5e3u1muxp8k-fill" stroke="none" fill="#484848"><g><text style="font: 20px Roboto, sans-serif; white-space: pre;" font-weight="20px" font-size="Roboto," font-family="sans-serif"><tspan x="12" y="34" dominant-baseline="ideographic">Automatic </tspan><tspan x="12" y="58" dominant-baseline="ideographic">Feature Learning</tspan></text></g></g></g><g id="g-root-tx_structur_1q6yw8a1muxogb-fill" data-item-order="1000000000" data-item-id="tx_structur_1q6yw8a1muxogb" data-item-class="Label Stroke Indexed ColorStrokeBlack" data-item-index="2" data-renderer-id="0" transform="translate(8, 2.999969482421875)"><g id="tx_structur_1q6yw8a1muxogb-fill" stroke="none" fill="#484848"><g><text style="font: 20px Roboto, sans-serif; white-space: pre;" font-weight="20px" font-size="Roboto," font-family="sans-serif"><tspan x="12.95" y="34" dominant-baseline="ideographic">Structured Data </tspan><tspan x="97.94" y="58" dominant-baseline="ideographic">Focus</tspan></text></g></g></g><g id="g-root-tx_handcraf_vdey1muxr0i-fill" data-item-order="1000000000" data-item-id="tx_handcraf_vdey1muxr0i" data-item-class="Label Stroke Indexed ColorStrokeBlack" data-item-index="3" data-renderer-id="0" transform="translate(32, 74.99996948242188)"><g id="tx_handcraf_vdey1muxr0i-fill" stroke="none" fill="#484848"><g><text style="font: 20px Roboto, sans-serif; white-space: pre;" font-weight="20px" font-size="Roboto," font-family="sans-serif"><tspan x="17.47" y="34" dominant-baseline="ideographic">Handcrafted </tspan><tspan x="50.63" y="58" dominant-baseline="ideographic">Features</tspan></text></g></g></g><g id="g-root-tx_handcraf_vdey1muxr0i-fill" data-item-order="1000000000" data-item-id="tx_handcraf_vdey1muxr0i" data-item-class="Label Stroke Indexed ColorStrokeBlack" data-item-index="3" data-renderer-id="0" transform="translate(32, 74.99996948242188)"><g id="tx_handcraf_vdey1muxr0i-fill" stroke="none" fill="#484848"><g><text style="font: 20px Roboto, sans-serif; white-space: pre;" font-weight="20px" font-size="Roboto," font-family="sans-serif"><tspan x="17.47" y="34" dominant-baseline="ideographic">Handcrafted </tspan><tspan x="50.63" y="58" dominant-baseline="ideographic">Features</tspan></text></g></g></g><g id="g-root-tx_unstruct_1cviduy1muxq19-fill" data-item-order="1000000000" data-item-id="tx_unstruct_1cviduy1muxq19" data-item-class="Label Stroke Indexed ColorStrokeBlack" data-item-index="5" data-renderer-id="0" transform="translate(392, 2.999969482421875)"><g id="tx_unstruct_1cviduy1muxq19-fill" stroke="none" fill="#484848"><g><text style="font: 20px Roboto, sans-serif; white-space: pre;" font-weight="20px" font-size="Roboto," font-family="sans-serif"><tspan x="12" y="34" dominant-baseline="ideographic">Unstructured </tspan><tspan x="12" y="58" dominant-baseline="ideographic">Data Handling</tspan></text></g></g></g><g id="g-root-tx_unstruct_1cviduy1muxq19-fill" data-item-order="1000000000" data-item-id="tx_unstruct_1cviduy1muxq19" data-item-class="Label Stroke Indexed ColorStrokeBlack" data-item-index="5" data-renderer-id="0" transform="translate(392, 2.999969482421875)"><g id="tx_unstruct_1cviduy1muxq19-fill" stroke="none" fill="#484848"><g><text style="font: 20px Roboto, sans-serif; white-space: pre;" font-weight="20px" font-size="Roboto," font-family="sans-serif"><tspan x="12" y="34" dominant-baseline="ideographic">Unstructured </tspan><tspan x="12" y="58" dominant-baseline="ideographic">Data Handling</tspan></text></g></g></g><g id="g-root-tx_deeplear_18fovqi1muxqtj-fill" data-item-order="1000000000" data-item-id="tx_deeplear_18fovqi1muxqtj" data-item-class="Label Stroke Indexed ColorStrokeBlack" data-item-index="none" data-renderer-id="0" transform="translate(338, 230.99996948242188)"><g id="tx_deeplear_18fovqi1muxqtj-fill" stroke="none" fill="#484848"><g><text style="font: 20px Roboto, sans-serif; white-space: pre;" font-weight="20px" font-size="Roboto," font-family="sans-serif"><tspan x="12.75" y="34" dominant-baseline="ideographic">Deep Learning Models</tspan></text></g></g></g><g id="g-root-stac_1q87uei1muz4su-fill" data-item-order="1000000000" data-item-id="stac_1q87uei1muz4su" data-item-class="Icon Stroke Indexed ColorStrokeBlack" data-item-index="5" data-renderer-id="0" transform="translate(332, 3)"></g><g id="g-root-stac_1q87uei1muz4su-fill" data-item-order="1000000000" data-item-id="stac_1q87uei1muz4su" data-item-class="Icon Stroke Indexed ColorStrokeBlack" data-item-index="5" data-renderer-id="0" transform="translate(332, 3)"></g><g id="g-root-1_92r4iy1muz5z5-fill" data-item-order="1000000000" data-item-id="1_92r4iy1muz5z5" data-item-class="Icon Stroke Indexed ColorStrokeBlack" data-item-index="2" data-renderer-id="0" transform="translate(164, 3)"></g><g id="g-root-1_92r4iy1muz5z5-fill" data-item-order="1000000000" data-item-id="1_92r4iy1muz5z5" data-item-class="Icon Stroke Indexed ColorStrokeBlack" data-item-index="2" data-renderer-id="0" transform="translate(164, 3)"></g><g id="g-root-tx_traditio_18fovqi1muxqti-fill" data-item-order="1000000000" data-item-id="tx_traditio_18fovqi1muxqti" data-item-class="Label Stroke Indexed ColorStrokeBlack" data-item-index="none" data-renderer-id="0" transform="translate(2, 230.99996948242188)"><g id="tx_traditio_18fovqi1muxqti-fill" stroke="none" fill="#484848"><g><text style="font: 20px Roboto, sans-serif; white-space: pre;" font-weight="20px" font-size="Roboto," font-family="sans-serif"><tspan x="13.68" y="34" dominant-baseline="ideographic">Traditional Algorithms</tspan></text></g></g></g><g id="g-root-tx_traditio_18fovqi1muxqti-fill" data-item-order="1000000000" data-item-id="tx_traditio_18fovqi1muxqti" data-item-class="Label Stroke Indexed ColorStrokeBlack" data-item-index="none" data-renderer-id="0" transform="translate(2, 230.99996948242188)"><g id="tx_traditio_18fovqi1muxqti-fill" stroke="none" fill="#484848"><g><text style="font: 20px Roboto, sans-serif; white-space: pre;" font-weight="20px" font-size="Roboto," font-family="sans-serif"><tspan x="13.68" y="34" dominant-baseline="ideographic">Traditional Algorithms</tspan></text></g></g></g><g id="g-root-tx_deeplear_18fovqi1muxqtj-fill" data-item-order="1000000000" data-item-id="tx_deeplear_18fovqi1muxqtj" data-item-class="Label Stroke Indexed ColorStrokeBlack" data-item-index="none" data-renderer-id="0" transform="translate(338, 230.99996948242188)"><g id="tx_deeplear_18fovqi1muxqtj-fill" stroke="none" fill="#484848"><g><text style="font: 20px Roboto, sans-serif; white-space: pre;" font-weight="20px" font-size="Roboto," font-family="sans-serif"><tspan x="12.75" y="34" dominant-baseline="ideographic">Deep Learning Models</tspan></text></g></g></g><g id="g-root-tx_structur_1q6yw8a1muxogb-fill" data-item-order="1000000000" data-item-id="tx_structur_1q6yw8a1muxogb" data-item-class="Label Stroke Indexed ColorStrokeBlack" data-item-index="2" data-renderer-id="0" transform="translate(8, 2.999969482421875)"><g id="tx_structur_1q6yw8a1muxogb-fill" stroke="none" fill="#484848"><g><text style="font: 20px Roboto, sans-serif; white-space: pre;" font-weight="20px" font-size="Roboto," font-family="sans-serif"><tspan x="12.95" y="34" dominant-baseline="ideographic">Structured Data </tspan><tspan x="97.94" y="58" dominant-baseline="ideographic">Focus</tspan></text></g></g></g><g id="g-root-tx_automati_1lr5e3u1muxp8k-fill" data-item-order="1000000000" data-item-id="tx_automati_1lr5e3u1muxp8k" data-item-class="Label Stroke Indexed ColorStrokeBlack" data-item-index="6" data-renderer-id="0" transform="translate(392, 74.99996948242188)"><g id="tx_automati_1lr5e3u1muxp8k-fill" stroke="none" fill="#484848"><g><text style="font: 20px Roboto, sans-serif; white-space: pre;" font-weight="20px" font-size="Roboto," font-family="sans-serif"><tspan x="12" y="34" dominant-baseline="ideographic">Automatic </tspan><tspan x="12" y="58" dominant-baseline="ideographic">Feature Learning</tspan></text></g></g></g><g id="g-root-5.cu_sy_qp1cbu1muxq11-stroke" data-item-order="999968324" data-item-id="5.cu_sy_qp1cbu1muxq11" data-item-class="Part Indexed Stroke ColorStrokeBlack" data-item-index="5" data-renderer-id="0" transform="translate(188, 153.99996948242188)"><g id="5.cu_sy_qp1cbu1muxq11-stroke" fill="none" stroke-linecap="round" stroke-linejoin="round" stroke-miterlimit="4" stroke="#484848" stroke-width="2"><g><path d="M 178 10C 178.8 14.9 177.2 20 178 25C 178.7 29.3 174.4 32.6 170 33C 149.1 34.9 127.9 31.1 107 33M 10 10C 10.8 14.9 9.6 20 10 25C 10.4 29.4 13.6 33.4 18 33C 39.2 31 60.7 31.3 82 33"></path><path d="M 178 10L 178 24.978C 178 29.395 174.42 32.976 170.003 32.978L 107 33M 10 10L 10 25.025C 10 29.444 13.582 33.025 18 33.025L 82 33.025"></path></g></g></g><g id="g-root-5.cu_sy_qp1cbu1muxq11-stroke" data-item-order="999968324" data-item-id="5.cu_sy_qp1cbu1muxq11" data-item-class="Part Indexed Stroke ColorStrokeBlack" data-item-index="5" data-renderer-id="0" transform="translate(188, 153.99996948242188)"><g id="5.cu_sy_qp1cbu1muxq11-stroke" fill="none" stroke-linecap="round" stroke-linejoin="round" stroke-miterlimit="4" stroke="#484848" stroke-width="2"><g><path d="M 178 10C 178.8 14.9 177.2 20 178 25C 178.7 29.3 174.4 32.6 170 33C 149.1 34.9 127.9 31.1 107 33M 10 10C 10.8 14.9 9.6 20 10 25C 10.4 29.4 13.6 33.4 18 33C 39.2 31 60.7 31.3 82 33"></path><path d="M 178 10L 178 24.978C 178 29.395 174.42 32.976 170.003 32.978L 107 33M 10 10L 10 25.025C 10 29.444 13.582 33.025 18 33.025L 82 33.025"></path></g></g></g><g id="g-root-4.cu_sy_v4uuga1muxp8s-stroke" data-item-order="999968325" data-item-id="4.cu_sy_v4uuga1muxp8s" data-item-class="Part Indexed Fill Stroke ColorFillGray ColorStrokeBlack" data-item-index="4" data-renderer-id="0" transform="translate(260, 164.99996948242188)"><g id="4.cu_sy_v4uuga1muxp8s-stroke" fill="none" stroke-linecap="round" stroke-linejoin="round" stroke-miterlimit="4" stroke="#484848" stroke-width="4"><g><path d="M 34.1 22C 34 28.6 28.7 33.6 22 34C 15.4 34.3 10.9 28.6 10 22C 9.1 15.4 15.4 10.3 22 10C 28.7 9.7 33.9 15.4 34.1 22M 28 22C 27.8 25.3 25.3 28.3 22 28C 18.7 27.7 15.7 25.3 16 22C 16.3 18.7 18.7 16.3 22 16C 25.3 15.7 28.1 18.7 28 22"></path><path d="M 34.086 22C 34.086 28.627 28.695 34 22.043 34C 15.392 34 10 28.627 10 22C 10 15.373 15.392 10 22.043 10C 28.695 10 34.086 15.373 34.086 22ZM 28 22C 28 25.314 25.314 28 22 28C 18.686 28 16 25.314 16 22C 16 18.686 18.686 16 22 16C 25.314 16 28 18.686 28 22Z"></path></g></g></g><g id="g-root-4.cu_sy_v4uuga1muxp8s-stroke" data-item-order="999968325" data-item-id="4.cu_sy_v4uuga1muxp8s" data-item-class="Part Indexed Fill Stroke ColorFillGray ColorStrokeBlack" data-item-index="4" data-renderer-id="0" transform="translate(260, 164.99996948242188)"><g id="4.cu_sy_v4uuga1muxp8s-stroke" fill="none" stroke-linecap="round" stroke-linejoin="round" stroke-miterlimit="4" stroke="#484848" stroke-width="4"><g><path d="M 34.1 22C 34 28.6 28.7 33.6 22 34C 15.4 34.3 10.9 28.6 10 22C 9.1 15.4 15.4 10.3 22 10C 28.7 9.7 33.9 15.4 34.1 22M 28 22C 27.8 25.3 25.3 28.3 22 28C 18.7 27.7 15.7 25.3 16 22C 16.3 18.7 18.7 16.3 22 16C 25.3 15.7 28.1 18.7 28 22"></path><path d="M 34.086 22C 34.086 28.627 28.695 34 22.043 34C 15.392 34 10 28.627 10 22C 10 15.373 15.392 10 22.043 10C 28.695 10 34.086 15.373 34.086 22ZM 28 22C 28 25.314 25.314 28 22 28C 18.686 28 16 25.314 16 22C 16 18.686 18.686 16 22 16C 25.314 16 28 18.686 28 22Z"></path></g></g></g><g id="g-root-3.cu_sy_v4uuga1muxp8r-stroke" data-item-order="999968327" data-item-id="3.cu_sy_v4uuga1muxp8r" data-item-class="Part Indexed Fill Stroke ColorFillGray ColorStrokeBlack" data-item-index="3" data-renderer-id="0" transform="translate(224, 186.32601928710938)"><g id="3.cu_sy_v4uuga1muxp8r-stroke" fill="none" stroke-linecap="round" stroke-linejoin="round" stroke-miterlimit="4" stroke="#484848" stroke-width="4"><g><path d="M 22 78.674011C 33.1 77.974011 44.3 78.874011 55.4 78.674011C 68.2 78.474011 81.1 77.874011 94 78.674011C 94 78.674011 74.4 27.974011 66 10.074011C 63.9 12.174011 61 12.474011 58 12.974011C 55 13.574011 52.5 11.674011 50.1 9.974011C 41.8 27.974011 22 78.674011 22 78.674011M 18 78.674011C 13.7 77.874011 9.9 82.274011 10 86.674011C 10 87.374011 10.1 88.074011 10 88.674011C 9.8 89.774011 10.9 90.674011 12 90.674011C 26.5 90.174011 41 91.874011 55.5 90.674011C 71.6 89.274011 87.9 89.774011 104 90.674011C 105.1 90.774011 105.6 89.674011 106 88.674011C 106.2 88.074011 106 87.374011 106 86.674011C 105.8 82.274011 102.3 79.674011 98 78.674011C 86.2 75.874011 73.8 79.474011 61.7 78.674011C 47.2 77.674011 32.6 78.874011 18 78.674011"></path><path d="M 22 78.674011L 94 78.674011C 94 78.674011 73.992 28.166011 65.959 10.058011C 63.725 11.952011 61.073 12.997011 58.043 12.997011C 54.986 12.997011 52.288 11.933011 50.072 10.000011C 42.047 28.114011 22 78.674011 22 78.674011ZM 18 78.679011C 13.582 78.679011 10 82.260011 10 86.679011L 10 88.679011C 10 89.783011 10.895 90.679011 12 90.679011L 104 90.679011C 105.105 90.679011 106 89.783011 106 88.679011L 106 86.679011C 106 82.260011 102.418 78.679011 98 78.679011L 18 78.679011Z"></path></g></g><g id="3.cu_sy_v4uuga1muxp8r-stroke" fill="none" stroke-linecap="round" stroke-linejoin="round" stroke-miterlimit="4" stroke="#484848" stroke-width="4"><g><path d="M 58 58.674011C 57 60.274011 55.3 61.274011 54 62.674011C 54.4 65.674011 54.2 68.774011 54 71.774011C 55.1 70.974011 56.6 70.974011 58 70.674011C 59.4 70.374011 60.8 71.174011 62 71.774011C 62 68.674011 62.6 65.674011 62 62.674011C 61 61.074011 59.4 59.974011 58 58.674011M 62 71.774011C 60.8 71.074011 59.4 70.874011 58 70.674011C 56.6 70.474011 55.1 70.874011 54 71.774011C 51.8 73.474011 50.7 75.774011 50 78.674011C 55.3 78.474011 60.8 77.374011 66 78.674011C 66.2 75.674011 64 73.674011 62 71.774011M 58 49.674011C 58.2 51.574011 58 53.574011 58 55.474011M 78.5 58.174011C 77.3 59.674011 76.1 61.474011 74.4 62.274011M 37.5 58.174011C 38.3 59.974011 40 61.174011 41.6 62.274011M 64.7 53.474011C 64.6 54.474011 64.4 55.374011 64 56.274011M 44.9 56.074011C 45.3 56.974011 45.9 57.774011 46.4 58.574011M 71 56.074011C 70.5 56.874011 70 57.674011 69.6 58.574011M 51.2 53.474011C 51.2 54.474011 51.7 55.374011 52 56.274011"></path><path d="M 58 58.679011L 54 62.679011L 54 71.749011C 55.177 71.068011 56.543 70.679011 58 70.679011C 59.457 70.679011 60.823 71.068011 62 71.749011L 62 62.679011L 58 58.679011ZM 62 71.749011C 60.823 71.068011 59.457 70.679011 58 70.679011C 56.543 70.679011 55.177 71.068011 54 71.749011C 51.609 73.132011 50 75.718011 50 78.679011L 66 78.679011C 66 75.718011 64.391 73.132011 62 71.749011ZM 58 49.679011L 58 55.479011M 78.503 58.176011L 74.404 62.274011M 37.497 58.176011L 41.596 62.274011M 64.747 53.468011L 64.003 56.262011M 44.94 56.078011L 46.4 58.591011M 71.031 56.068011L 69.59 58.572011M 51.224 53.478011L 51.978 56.271011"></path></g></g></g><g id="g-root-3.cu_sy_v4uuga1muxp8r-stroke" data-item-order="999968327" data-item-id="3.cu_sy_v4uuga1muxp8r" data-item-class="Part Indexed Fill Stroke ColorFillGray ColorStrokeBlack" data-item-index="3" data-renderer-id="0" transform="translate(224, 186.32601928710938)"><g id="3.cu_sy_v4uuga1muxp8r-stroke" fill="none" stroke-linecap="round" stroke-linejoin="round" stroke-miterlimit="4" stroke="#484848" stroke-width="4"><g><path d="M 22 78.674011C 33.1 77.974011 44.3 78.874011 55.4 78.674011C 68.2 78.474011 81.1 77.874011 94 78.674011C 94 78.674011 74.4 27.974011 66 10.074011C 63.9 12.174011 61 12.474011 58 12.974011C 55 13.574011 52.5 11.674011 50.1 9.974011C 41.8 27.974011 22 78.674011 22 78.674011M 18 78.674011C 13.7 77.874011 9.9 82.274011 10 86.674011C 10 87.374011 10.1 88.074011 10 88.674011C 9.8 89.774011 10.9 90.674011 12 90.674011C 26.5 90.174011 41 91.874011 55.5 90.674011C 71.6 89.274011 87.9 89.774011 104 90.674011C 105.1 90.774011 105.6 89.674011 106 88.674011C 106.2 88.074011 106 87.374011 106 86.674011C 105.8 82.274011 102.3 79.674011 98 78.674011C 86.2 75.874011 73.8 79.474011 61.7 78.674011C 47.2 77.674011 32.6 78.874011 18 78.674011"></path><path d="M 22 78.674011L 94 78.674011C 94 78.674011 73.992 28.166011 65.959 10.058011C 63.725 11.952011 61.073 12.997011 58.043 12.997011C 54.986 12.997011 52.288 11.933011 50.072 10.000011C 42.047 28.114011 22 78.674011 22 78.674011ZM 18 78.679011C 13.582 78.679011 10 82.260011 10 86.679011L 10 88.679011C 10 89.783011 10.895 90.679011 12 90.679011L 104 90.679011C 105.105 90.679011 106 89.783011 106 88.679011L 106 86.679011C 106 82.260011 102.418 78.679011 98 78.679011L 18 78.679011Z"></path></g></g><g id="3.cu_sy_v4uuga1muxp8r-stroke" fill="none" stroke-linecap="round" stroke-linejoin="round" stroke-miterlimit="4" stroke="#484848" stroke-width="4"><g><path d="M 58 58.674011C 57 60.274011 55.3 61.274011 54 62.674011C 54.4 65.674011 54.2 68.774011 54 71.774011C 55.1 70.974011 56.6 70.974011 58 70.674011C 59.4 70.374011 60.8 71.174011 62 71.774011C 62 68.674011 62.6 65.674011 62 62.674011C 61 61.074011 59.4 59.974011 58 58.674011M 62 71.774011C 60.8 71.074011 59.4 70.874011 58 70.674011C 56.6 70.474011 55.1 70.874011 54 71.774011C 51.8 73.474011 50.7 75.774011 50 78.674011C 55.3 78.474011 60.8 77.374011 66 78.674011C 66.2 75.674011 64 73.674011 62 71.774011M 58 49.674011C 58.2 51.574011 58 53.574011 58 55.474011M 78.5 58.174011C 77.3 59.674011 76.1 61.474011 74.4 62.274011M 37.5 58.174011C 38.3 59.974011 40 61.174011 41.6 62.274011M 64.7 53.474011C 64.6 54.474011 64.4 55.374011 64 56.274011M 44.9 56.074011C 45.3 56.974011 45.9 57.774011 46.4 58.574011M 71 56.074011C 70.5 56.874011 70 57.674011 69.6 58.574011M 51.2 53.474011C 51.2 54.474011 51.7 55.374011 52 56.274011"></path><path d="M 58 58.679011L 54 62.679011L 54 71.749011C 55.177 71.068011 56.543 70.679011 58 70.679011C 59.457 70.679011 60.823 71.068011 62 71.749011L 62 62.679011L 58 58.679011ZM 62 71.749011C 60.823 71.068011 59.457 70.679011 58 70.679011C 56.543 70.679011 55.177 71.068011 54 71.749011C 51.609 73.132011 50 75.718011 50 78.679011L 66 78.679011C 66 75.718011 64.391 73.132011 62 71.749011ZM 58 49.679011L 58 55.479011M 78.503 58.176011L 74.404 62.274011M 37.497 58.176011L 41.596 62.274011M 64.747 53.468011L 64.003 56.262011M 44.94 56.078011L 46.4 58.591011M 71.031 56.068011L 69.59 58.572011M 51.224 53.478011L 51.978 56.271011"></path></g></g></g><g id="g-root-2.right-bucket_sy_v4uuga1muxp8q-stroke" data-item-order="999968329" data-item-id="2.right-bucket_sy_v4uuga1muxp8q" data-item-class="Part Indexed Fill Stroke ColorStrokeBlack" data-item-index="2" data-renderer-id="0" transform="translate(320, 134.99996948242188)"><g id="2.right-bucket_sy_v4uuga1muxp8q-stroke" fill="none" stroke-linecap="round" stroke-linejoin="round" stroke-miterlimit="4" stroke="#484848" stroke-width="4"><g><path d="M 10 11.8C 10 10.8 10.8 10.1 11.8 10C 34.5 8.2 57.4 9.5 80.2 10C 81.2 10 81.7 10.9 82 11.8C 84.6 20.4 74.7 27.1 65.8 28C 52.7 29.4 39.4 28 26.2 28C 17.3 28 10 20.8 10 11.8"></path><path d="M 10 11.8C 10 10.806 10.806 10 11.8 10L 80.2 10C 81.194 10 82 10.806 82 11.8C 82 20.747 74.747 28 65.8 28L 26.2 28C 17.253 28 10 20.747 10 11.8Z"></path></g></g></g><g id="g-root-2.right-bucket_sy_v4uuga1muxp8q-stroke" data-item-order="999968329" data-item-id="2.right-bucket_sy_v4uuga1muxp8q" data-item-class="Part Indexed Fill Stroke ColorStrokeBlack" data-item-index="2" data-renderer-id="0" transform="translate(320, 134.99996948242188)"><g id="2.right-bucket_sy_v4uuga1muxp8q-stroke" fill="none" stroke-linecap="round" stroke-linejoin="round" stroke-miterlimit="4" stroke="#484848" stroke-width="4"><g><path d="M 10 11.8C 10 10.8 10.8 10.1 11.8 10C 34.5 8.2 57.4 9.5 80.2 10C 81.2 10 81.7 10.9 82 11.8C 84.6 20.4 74.7 27.1 65.8 28C 52.7 29.4 39.4 28 26.2 28C 17.3 28 10 20.8 10 11.8"></path><path d="M 10 11.8C 10 10.806 10.806 10 11.8 10L 80.2 10C 81.194 10 82 10.806 82 11.8C 82 20.747 74.747 28 65.8 28L 26.2 28C 17.253 28 10 20.747 10 11.8Z"></path></g></g></g><g id="g-root-1.left-bucket_sy_140hup61muxog1-stroke" data-item-order="999968331" data-item-id="1.left-bucket_sy_140hup61muxog1" data-item-class="Part Indexed Indexed_1 Fill Stroke ColorStrokeBlack" data-item-index="1" data-renderer-id="0" transform="translate(152, 134.99996948242188)"><g id="1.left-bucket_sy_140hup61muxog1-stroke" fill="none" stroke-linecap="round" stroke-linejoin="round" stroke-miterlimit="4" stroke="#484848" stroke-width="4"><g><path d="M 10 11.8C 10.2 10.8 10.8 9.8 11.8 10C 34.1 14.8 57.4 10.9 80.2 10C 81.2 10 82.1 10.8 82 11.8C 81.2 20.7 74.6 29.3 65.8 28C 52.7 26.1 39.4 28 26.2 28C 17.3 28 11.5 20.6 10 11.8"></path><path d="M 10 11.8C 10 10.806 10.806 10 11.8 10L 80.2 10C 81.194 10 82 10.806 82 11.8C 82 20.747 74.747 28 65.8 28L 26.2 28C 17.253 28 10 20.747 10 11.8Z"></path></g></g></g><g id="g-root-1.left-bucket_sy_140hup61muxog1-stroke" data-item-order="999968331" data-item-id="1.left-bucket_sy_140hup61muxog1" data-item-class="Part Indexed Indexed_1 Fill Stroke ColorStrokeBlack" data-item-index="1" data-renderer-id="0" transform="translate(152, 134.99996948242188)"><g id="1.left-bucket_sy_140hup61muxog1-stroke" fill="none" stroke-linecap="round" stroke-linejoin="round" stroke-miterlimit="4" stroke="#484848" stroke-width="4"><g><path d="M 10 11.8C 10.2 10.8 10.8 9.8 11.8 10C 34.1 14.8 57.4 10.9 80.2 10C 81.2 10 82.1 10.8 82 11.8C 81.2 20.7 74.6 29.3 65.8 28C 52.7 26.1 39.4 28 26.2 28C 17.3 28 11.5 20.6 10 11.8"></path><path d="M 10 11.8C 10 10.806 10.806 10 11.8 10L 80.2 10C 81.194 10 82 10.806 82 11.8C 82 20.747 74.747 28 65.8 28L 26.2 28C 17.253 28 10 20.747 10 11.8Z"></path></g></g></g><g id="g-root-2_1lr5e3u1muz3f0-stroke" data-item-order="1000000000" data-item-id="2_1lr5e3u1muz3f0" data-item-class="Icon Stroke Indexed ColorStrokeBlack" data-item-index="3" data-renderer-id="0" transform="translate(164, 74.99996948242188)"><g id="2_1lr5e3u1muz3f0-stroke" fill="none" stroke-linecap="round" stroke-linejoin="round" stroke-miterlimit="4" stroke="#484848" stroke-width="2"><g><path d="M 44 30.4C 48.799999 27.799999 51 21.799999 55.599998 19C 57 18 57.599998 16 57 14.4C 56.400002 12.8 55 11.8 53.599998 11C 52.200001 10.2 49.799999 10.8 49 12.4C 45 16 41.799999 20.6 37.599998 24C 39.400002 26.4 41.400002 28.799999 44 30.4M 38.599998 25.200001C 37.200001 27.200001 34.599998 28.200001 33.400002 30.4C 32.200001 29.200001 30.200001 29 29 30.200001C 23.200001 36.400002 15.8 41.200001 11 48.200001C 15.8 48.400002 20.799999 52.200001 19.799999 57C 25.799999 51 33.200001 46 37.799999 39C 38.599998 37.599998 39 35.799999 37.799999 34.599998C 40 33.599998 41.400002 31.4 43 29.4M 22.6 36.799999C 25.4 35 29 34.400002 31 37C 33.200001 39.400002 34 43.799999 31.200001 45.400002"></path><path d="M 44.028 30.462L 55.574001 18.917999C 56.861122 17.786268 57.412319 16.032806 57.004227 14.368185C 56.596134 12.703564 55.296432 11.403862 53.631813 10.99577C 51.967194 10.587677 50.21373 11.138876 49.081997 12.426L 49.082001 12.426001L 37.538002 23.972ZM 38.674 25.108L 33.464001 30.318001L 33.408001 30.264C 32.213165 29.069992 30.276834 29.069992 29.082001 30.264L 11.082 48.264C 15.846512 48.299927 19.700073 52.153488 19.736 56.917999L 37.736 38.917999C 38.908012 37.743324 38.931068 35.848854 37.788002 34.646L 43 29.434M 22.6 36.753998C 25.016338 34.548447 28.739992 34.633316 31.053339 36.946663C 33.366684 39.26001 33.451553 42.983662 31.246 45.400002"></path></g></g></g><g id="g-root-2_1lr5e3u1muz3f0-stroke" data-item-order="1000000000" data-item-id="2_1lr5e3u1muz3f0" data-item-class="Icon Stroke Indexed ColorStrokeBlack" data-item-index="3" data-renderer-id="0" transform="translate(164, 74.99996948242188)"><g id="2_1lr5e3u1muz3f0-stroke" fill="none" stroke-linecap="round" stroke-linejoin="round" stroke-miterlimit="4" stroke="#484848" stroke-width="2"><g><path d="M 44 30.4C 48.799999 27.799999 51 21.799999 55.599998 19C 57 18 57.599998 16 57 14.4C 56.400002 12.8 55 11.8 53.599998 11C 52.200001 10.2 49.799999 10.8 49 12.4C 45 16 41.799999 20.6 37.599998 24C 39.400002 26.4 41.400002 28.799999 44 30.4M 38.599998 25.200001C 37.200001 27.200001 34.599998 28.200001 33.400002 30.4C 32.200001 29.200001 30.200001 29 29 30.200001C 23.200001 36.400002 15.8 41.200001 11 48.200001C 15.8 48.400002 20.799999 52.200001 19.799999 57C 25.799999 51 33.200001 46 37.799999 39C 38.599998 37.599998 39 35.799999 37.799999 34.599998C 40 33.599998 41.400002 31.4 43 29.4M 22.6 36.799999C 25.4 35 29 34.400002 31 37C 33.200001 39.400002 34 43.799999 31.200001 45.400002"></path><path d="M 44.028 30.462L 55.574001 18.917999C 56.861122 17.786268 57.412319 16.032806 57.004227 14.368185C 56.596134 12.703564 55.296432 11.403862 53.631813 10.99577C 51.967194 10.587677 50.21373 11.138876 49.081997 12.426L 49.082001 12.426001L 37.538002 23.972ZM 38.674 25.108L 33.464001 30.318001L 33.408001 30.264C 32.213165 29.069992 30.276834 29.069992 29.082001 30.264L 11.082 48.264C 15.846512 48.299927 19.700073 52.153488 19.736 56.917999L 37.736 38.917999C 38.908012 37.743324 38.931068 35.848854 37.788002 34.646L 43 29.434M 22.6 36.753998C 25.016338 34.548447 28.739992 34.633316 31.053339 36.946663C 33.366684 39.26001 33.451553 42.983662 31.246 45.400002"></path></g></g></g><g id="g-root-1_1hbbvze1muz479-stroke" data-item-order="1000000000" data-item-id="1_1hbbvze1muz479" data-item-class="Icon Stroke Indexed ColorStrokeBlack" data-item-index="6" data-renderer-id="0" transform="translate(332, 74.99996948242188)"><g id="1_1hbbvze1muz479-stroke" fill="none" stroke-linecap="round" stroke-linejoin="round" stroke-miterlimit="4" stroke="#484848" stroke-width="2"><g><path d="M 20 37.400002C 15.6 36.799999 13 41 12 45.400002C 11.2 49 11.8 52.799999 12 56.400002C 17.4 56 22.799999 55.400002 28 56.400002C 28.6 52.799999 28.799999 49 28 45.400002C 27 41 24.4 38.400002 20 37.400002M 16 38.400002C 16.799999 34.200001 16 30 16 25.799999M 24 25.799999C 23.200001 30 22.799999 34.400002 24 38.400002M 14 21.4C 13.4 24.6 16.799999 28.200001 20 27.4C 23.200001 26.4 26.200001 24.6 26 21.4C 25.799999 18 23.200001 16.200001 20 15.4C 16.799999 14.6 15 18.200001 14 21.4M 39.599998 17.200001C 40.200001 20 42 21.799999 45 22.6C 48 23.4 51 20.200001 50.599998 17.200001C 50.200001 14.2 47.799999 10.4 45 11.6C 42.200001 12.8 39.400002 14 39.599998 17.200001M 39.799999 14.4C 34.799999 16.6 29.4 17.4 24.200001 17M 25.799999 22.6C 30.4 23.6 35 20.799999 39.400002 20.4M 43.200001 22.6C 43.200001 24.6 43.400002 26.6 43.599998 28.4M 48.400002 28C 48.599998 26.200001 48.200001 24.200001 47.799999 22.200001M 12 46.400002C 17.4 46.400002 22.799999 47.599998 28 46.400002M 41.200001 28.6C 42.799999 28.6 44.400002 28.200001 46 28.200001C 47.599998 28.4 49.200001 28.4 50.599998 28M 46.599998 34.200001C 46.200001 32.200001 46 30.200001 46 28.200001M 12 56.400002C 26.6 58 41.400002 55.599998 56 56.400002M 36.799999 56.400002C 37 55 36.599998 53.599998 36.799999 52.200001C 37 51.200001 37.599998 50.599998 38.599998 50.400002C 43.799999 50 49 50.799999 54.200001 50.400002C 55.200001 50.400002 56.200001 51.200001 56 52.200001C 55.799999 53.599998 56 55 56 56.400002M 40.400002 50.400002C 42.400002 46.599998 43.400002 41.799999 46.400002 38.400002C 47 43 50.799999 46.400002 52.599998 50.400002C 48.799999 49 44.400002 50.200001 40.400002 50.400002M 19 21.200001C 18.799999 21.799999 19.4 22.4 20 22.200001C 20.6 22 21 21.799999 21 21.200001C 21 20.799999 20.6 20 20 20.200001C 19.4 20.4 19.200001 20.799999 19 21.200001M 52.799999 31C 53.799999 30.799999 54.400002 29.799999 55.200001 29.4M 53.200001 35.799999C 53.799999 36.200001 54.400002 36.799999 55.200001 37.200001M 39.599998 32.200001C 38.799999 31.6 37.799999 31.799999 37 31.200001M 40.400002 36.799999C 40.200001 37.599998 39 38 38.799999 38.799999"></path><path d="M 20 37.400002C 15.581722 37.400002 12 40.98172 12 45.400002L 12 56.400002L 28 56.400002L 28 45.400002C 28 40.98172 24.418278 37.400002 20 37.400002ZM 16 38.391998L 16 25.864M 24 25.864L 24 38.391998M 14 21.392C 14 24.705708 16.686291 27.392 20 27.392C 23.313709 27.392 26 24.705708 26 21.392C 26 18.078293 23.313709 15.392 20 15.392C 16.686291 15.392 14 18.078293 14 21.392M 39.542 17.116001C 39.542 20.157986 42.008015 22.624001 45.049999 22.624001C 48.091984 22.624001 50.557999 20.157986 50.557999 17.116001C 50.557999 14.074016 48.091984 11.608 45.049999 11.608C 42.008015 11.608 39.542 14.074016 39.542 17.116001M 39.784 14.493999L 24.104 17.015999M 25.892 22.529999L 39.478001 20.344M 43.188 22.624001L 43.666 28.440001M 48.327999 28.056L 47.849998 22.25M 12 46.391998L 28 46.391998M 41.299999 28.586L 46.049999 28.243999L 50.548 27.92M 46.543999 34.248001L 46.049999 28.243999M 12 56.391998L 56 56.391998M 36.889999 56.400002L 36.889999 52.169998C 36.903168 51.224136 37.680122 50.467766 38.625999 50.48L 54.262001 50.48C 55.208652 50.466652 55.986839 51.223347 56 52.170002L 56 56.400002M 40.363998 50.48L 46.444 38.48L 52.526001 50.48L 40.363998 50.48ZM 19 21.248001C 19 21.800285 19.447716 22.248001 20 22.248001C 20.552284 22.248001 21 21.800285 21 21.248001C 21 20.695715 20.552284 20.248001 20 20.248001C 19.447716 20.248001 19 20.695715 19 21.248001M 52.880001 31.01L 55.212002 29.474001M 53.195999 35.746002L 55.138 37.23M 39.538002 32.152L 36.908001 31.212M 40.354 36.826L 38.82 38.728001"></path></g></g></g><g id="g-root-1_1hbbvze1muz479-stroke" data-item-order="1000000000" data-item-id="1_1hbbvze1muz479" data-item-class="Icon Stroke Indexed ColorStrokeBlack" data-item-index="6" data-renderer-id="0" transform="translate(332, 74.99996948242188)"><g id="1_1hbbvze1muz479-stroke" fill="none" stroke-linecap="round" stroke-linejoin="round" stroke-miterlimit="4" stroke="#484848" stroke-width="2"><g><path d="M 20 37.400002C 15.6 36.799999 13 41 12 45.400002C 11.2 49 11.8 52.799999 12 56.400002C 17.4 56 22.799999 55.400002 28 56.400002C 28.6 52.799999 28.799999 49 28 45.400002C 27 41 24.4 38.400002 20 37.400002M 16 38.400002C 16.799999 34.200001 16 30 16 25.799999M 24 25.799999C 23.200001 30 22.799999 34.400002 24 38.400002M 14 21.4C 13.4 24.6 16.799999 28.200001 20 27.4C 23.200001 26.4 26.200001 24.6 26 21.4C 25.799999 18 23.200001 16.200001 20 15.4C 16.799999 14.6 15 18.200001 14 21.4M 39.599998 17.200001C 40.200001 20 42 21.799999 45 22.6C 48 23.4 51 20.200001 50.599998 17.200001C 50.200001 14.2 47.799999 10.4 45 11.6C 42.200001 12.8 39.400002 14 39.599998 17.200001M 39.799999 14.4C 34.799999 16.6 29.4 17.4 24.200001 17M 25.799999 22.6C 30.4 23.6 35 20.799999 39.400002 20.4M 43.200001 22.6C 43.200001 24.6 43.400002 26.6 43.599998 28.4M 48.400002 28C 48.599998 26.200001 48.200001 24.200001 47.799999 22.200001M 12 46.400002C 17.4 46.400002 22.799999 47.599998 28 46.400002M 41.200001 28.6C 42.799999 28.6 44.400002 28.200001 46 28.200001C 47.599998 28.4 49.200001 28.4 50.599998 28M 46.599998 34.200001C 46.200001 32.200001 46 30.200001 46 28.200001M 12 56.400002C 26.6 58 41.400002 55.599998 56 56.400002M 36.799999 56.400002C 37 55 36.599998 53.599998 36.799999 52.200001C 37 51.200001 37.599998 50.599998 38.599998 50.400002C 43.799999 50 49 50.799999 54.200001 50.400002C 55.200001 50.400002 56.200001 51.200001 56 52.200001C 55.799999 53.599998 56 55 56 56.400002M 40.400002 50.400002C 42.400002 46.599998 43.400002 41.799999 46.400002 38.400002C 47 43 50.799999 46.400002 52.599998 50.400002C 48.799999 49 44.400002 50.200001 40.400002 50.400002M 19 21.200001C 18.799999 21.799999 19.4 22.4 20 22.200001C 20.6 22 21 21.799999 21 21.200001C 21 20.799999 20.6 20 20 20.200001C 19.4 20.4 19.200001 20.799999 19 21.200001M 52.799999 31C 53.799999 30.799999 54.400002 29.799999 55.200001 29.4M 53.200001 35.799999C 53.799999 36.200001 54.400002 36.799999 55.200001 37.200001M 39.599998 32.200001C 38.799999 31.6 37.799999 31.799999 37 31.200001M 40.400002 36.799999C 40.200001 37.599998 39 38 38.799999 38.799999"></path><path d="M 20 37.400002C 15.581722 37.400002 12 40.98172 12 45.400002L 12 56.400002L 28 56.400002L 28 45.400002C 28 40.98172 24.418278 37.400002 20 37.400002ZM 16 38.391998L 16 25.864M 24 25.864L 24 38.391998M 14 21.392C 14 24.705708 16.686291 27.392 20 27.392C 23.313709 27.392 26 24.705708 26 21.392C 26 18.078293 23.313709 15.392 20 15.392C 16.686291 15.392 14 18.078293 14 21.392M 39.542 17.116001C 39.542 20.157986 42.008015 22.624001 45.049999 22.624001C 48.091984 22.624001 50.557999 20.157986 50.557999 17.116001C 50.557999 14.074016 48.091984 11.608 45.049999 11.608C 42.008015 11.608 39.542 14.074016 39.542 17.116001M 39.784 14.493999L 24.104 17.015999M 25.892 22.529999L 39.478001 20.344M 43.188 22.624001L 43.666 28.440001M 48.327999 28.056L 47.849998 22.25M 12 46.391998L 28 46.391998M 41.299999 28.586L 46.049999 28.243999L 50.548 27.92M 46.543999 34.248001L 46.049999 28.243999M 12 56.391998L 56 56.391998M 36.889999 56.400002L 36.889999 52.169998C 36.903168 51.224136 37.680122 50.467766 38.625999 50.48L 54.262001 50.48C 55.208652 50.466652 55.986839 51.223347 56 52.170002L 56 56.400002M 40.363998 50.48L 46.444 38.48L 52.526001 50.48L 40.363998 50.48ZM 19 21.248001C 19 21.800285 19.447716 22.248001 20 22.248001C 20.552284 22.248001 21 21.800285 21 21.248001C 21 20.695715 20.552284 20.248001 20 20.248001C 19.447716 20.248001 19 20.695715 19 21.248001M 52.880001 31.01L 55.212002 29.474001M 53.195999 35.746002L 55.138 37.23M 39.538002 32.152L 36.908001 31.212M 40.354 36.826L 38.82 38.728001"></path></g></g></g><g id="g-root-tx_automati_1lr5e3u1muxp8k-stroke" data-item-order="1000000000" data-item-id="tx_automati_1lr5e3u1muxp8k" data-item-class="Label Stroke Indexed ColorStrokeBlack" data-item-index="6" data-renderer-id="0" transform="translate(392, 74.99996948242188)"></g><g id="g-root-tx_structur_1q6yw8a1muxogb-stroke" data-item-order="1000000000" data-item-id="tx_structur_1q6yw8a1muxogb" data-item-class="Label Stroke Indexed ColorStrokeBlack" data-item-index="2" data-renderer-id="0" transform="translate(8, 2.999969482421875)"></g><g id="g-root-tx_handcraf_vdey1muxr0i-stroke" data-item-order="1000000000" data-item-id="tx_handcraf_vdey1muxr0i" data-item-class="Label Stroke Indexed ColorStrokeBlack" data-item-index="3" data-renderer-id="0" transform="translate(32, 74.99996948242188)"></g><g id="g-root-tx_handcraf_vdey1muxr0i-stroke" data-item-order="1000000000" data-item-id="tx_handcraf_vdey1muxr0i" data-item-class="Label Stroke Indexed ColorStrokeBlack" data-item-index="3" data-renderer-id="0" transform="translate(32, 74.99996948242188)"></g><g id="g-root-tx_unstruct_1cviduy1muxq19-stroke" data-item-order="1000000000" data-item-id="tx_unstruct_1cviduy1muxq19" data-item-class="Label Stroke Indexed ColorStrokeBlack" data-item-index="5" data-renderer-id="0" transform="translate(392, 2.999969482421875)"></g><g id="g-root-tx_unstruct_1cviduy1muxq19-stroke" data-item-order="1000000000" data-item-id="tx_unstruct_1cviduy1muxq19" data-item-class="Label Stroke Indexed ColorStrokeBlack" data-item-index="5" data-renderer-id="0" transform="translate(392, 2.999969482421875)"></g><g id="g-root-tx_deeplear_18fovqi1muxqtj-stroke" data-item-order="1000000000" data-item-id="tx_deeplear_18fovqi1muxqtj" data-item-class="Label Stroke Indexed ColorStrokeBlack" data-item-index="none" data-renderer-id="0" transform="translate(338, 230.99996948242188)"></g><g id="g-root-stac_1q87uei1muz4su-stroke" data-item-order="1000000000" data-item-id="stac_1q87uei1muz4su" data-item-class="Icon Stroke Indexed ColorStrokeBlack" data-item-index="5" data-renderer-id="0" transform="translate(332, 3)"><g id="stac_1q87uei1muz4su-stroke" fill="none" stroke-linecap="round" stroke-linejoin="round" stroke-miterlimit="4" stroke="#484848" stroke-width="2"><g><path d="M 26 11C 32.400002 10.6 38.799999 10.4 45.200001 11C 45.799999 11 46.200001 11.2 46.599998 11.6C 48.200001 13.2 49.400002 15.4 51.400002 16.4C 51.799999 16.6 51.799999 17.4 52 17.799999C 54.599998 27.200001 50 37.400002 52 47C 52.200001 48 51 48.799999 50 49C 42 50.200001 34 48 26 49C 25 49.200001 24.200001 48 24 47C 21.200001 36 24.6 24.4 24 13C 24 11.8 25 10.6 26 11M 46 53C 38 52.599998 29.6 50.400002 22 53C 21 53.400002 20 52 20 51C 20.200001 39.599998 22.6 28 20 17M 42 57C 34 56.599998 26 56.799999 18 57C 16.799999 57 16 56 16 55C 15.8 43.599998 18.200001 32.200001 16 21"></path><path d="M 26 11L 45.18 11C 45.704681 11.002209 46.207478 11.210512 46.580002 11.58L 51.419998 16.42C 51.78949 16.792522 51.997791 17.295321 52 17.82L 52 47C 52 48.104568 51.104568 49 50 49L 26 49C 24.895432 49 24 48.104568 24 47L 24 13C 24 11.895431 24.895432 11 26 11ZM 46 53L 22 53C 20.895432 53 20 52.104568 20 51L 20 17M 42 57L 18 57C 16.895432 57 16 56.104568 16 55L 16 21"></path></g></g></g><g id="g-root-stac_1q87uei1muz4su-stroke" data-item-order="1000000000" data-item-id="stac_1q87uei1muz4su" data-item-class="Icon Stroke Indexed ColorStrokeBlack" data-item-index="5" data-renderer-id="0" transform="translate(332, 3)"><g id="stac_1q87uei1muz4su-stroke" fill="none" stroke-linecap="round" stroke-linejoin="round" stroke-miterlimit="4" stroke="#484848" stroke-width="2"><g><path d="M 26 11C 32.400002 10.6 38.799999 10.4 45.200001 11C 45.799999 11 46.200001 11.2 46.599998 11.6C 48.200001 13.2 49.400002 15.4 51.400002 16.4C 51.799999 16.6 51.799999 17.4 52 17.799999C 54.599998 27.200001 50 37.400002 52 47C 52.200001 48 51 48.799999 50 49C 42 50.200001 34 48 26 49C 25 49.200001 24.200001 48 24 47C 21.200001 36 24.6 24.4 24 13C 24 11.8 25 10.6 26 11M 46 53C 38 52.599998 29.6 50.400002 22 53C 21 53.400002 20 52 20 51C 20.200001 39.599998 22.6 28 20 17M 42 57C 34 56.599998 26 56.799999 18 57C 16.799999 57 16 56 16 55C 15.8 43.599998 18.200001 32.200001 16 21"></path><path d="M 26 11L 45.18 11C 45.704681 11.002209 46.207478 11.210512 46.580002 11.58L 51.419998 16.42C 51.78949 16.792522 51.997791 17.295321 52 17.82L 52 47C 52 48.104568 51.104568 49 50 49L 26 49C 24.895432 49 24 48.104568 24 47L 24 13C 24 11.895431 24.895432 11 26 11ZM 46 53L 22 53C 20.895432 53 20 52.104568 20 51L 20 17M 42 57L 18 57C 16.895432 57 16 56.104568 16 55L 16 21"></path></g></g></g><g id="g-root-1_92r4iy1muz5z5-stroke" data-item-order="1000000000" data-item-id="1_92r4iy1muz5z5" data-item-class="Icon Stroke Indexed ColorStrokeBlack" data-item-index="2" data-renderer-id="0" transform="translate(164, 3)"><g id="1_92r4iy1muz5z5-stroke" fill="none" stroke-linecap="round" stroke-linejoin="round" stroke-miterlimit="4" stroke="#484848" stroke-width="2"><g><path d="M 13 11C 26.799999 13.6 41 11.8 55 11C 55 11 56.599998 11 57 13C 59.599998 26.799999 59.200001 41.200001 57 55C 57 55 57 56.599998 55 57C 41.200001 59.599998 27 57.599998 13 57C 13 57 11.6 57 11 55C 6.6 41.599998 10.4 27 11 13C 11 13 11 11.2 13 11M 18 49C 22.200001 44.799999 22.799999 38 26 33M 26 49C 23 43.799999 19.799999 38.599998 18 33M 30 33C 30.799999 37.200001 30 41.599998 30 46C 30 47.599998 31.4 49.599998 33 49C 34.599998 48.400002 36.400002 48.400002 38 49M 50 33C 48.599998 33.400002 47.200001 33 45.799999 33C 44 33 42.200001 34.200001 42.200001 35.799999C 42 37.599998 42.400002 39.400002 44 40C 45.400002 40.599998 46.599998 41.200001 48 42C 49.400002 42.799999 49.799999 44.400002 50 46.200001C 50 47.799999 48 49.200001 46.200001 49C 44.799999 48.799999 43.400002 49 42 49"></path><path d="M 13 10.998L 55 10.998C 55 10.998 57 10.998 57 12.998L 57 54.998001C 57 54.998001 57 56.998001 55 56.998001L 13 56.998001C 13 56.998001 11 56.998001 11 54.998001L 11 12.998C 11 12.998 11 10.998 13 10.998M 18 48.998001L 26 32.998001M 26 48.998001L 18 32.998001M 30 33L 30 46C 30 47.656857 31.343147 49 33 49L 38 49M 50 33L 45.708 33C 43.988789 33.000622 42.49548 34.182915 42.100517 35.856148C 41.705551 37.529373 42.512539 39.254646 44.049999 40.024002L 47.950001 41.973999C 49.489811 42.742203 50.298763 44.46883 49.903545 46.143627C 49.508324 47.818424 48.012798 49.00124 46.292 49L 42 49"></path></g></g></g><g id="g-root-1_92r4iy1muz5z5-stroke" data-item-order="1000000000" data-item-id="1_92r4iy1muz5z5" data-item-class="Icon Stroke Indexed ColorStrokeBlack" data-item-index="2" data-renderer-id="0" transform="translate(164, 3)"><g id="1_92r4iy1muz5z5-stroke" fill="none" stroke-linecap="round" stroke-linejoin="round" stroke-miterlimit="4" stroke="#484848" stroke-width="2"><g><path d="M 13 11C 26.799999 13.6 41 11.8 55 11C 55 11 56.599998 11 57 13C 59.599998 26.799999 59.200001 41.200001 57 55C 57 55 57 56.599998 55 57C 41.200001 59.599998 27 57.599998 13 57C 13 57 11.6 57 11 55C 6.6 41.599998 10.4 27 11 13C 11 13 11 11.2 13 11M 18 49C 22.200001 44.799999 22.799999 38 26 33M 26 49C 23 43.799999 19.799999 38.599998 18 33M 30 33C 30.799999 37.200001 30 41.599998 30 46C 30 47.599998 31.4 49.599998 33 49C 34.599998 48.400002 36.400002 48.400002 38 49M 50 33C 48.599998 33.400002 47.200001 33 45.799999 33C 44 33 42.200001 34.200001 42.200001 35.799999C 42 37.599998 42.400002 39.400002 44 40C 45.400002 40.599998 46.599998 41.200001 48 42C 49.400002 42.799999 49.799999 44.400002 50 46.200001C 50 47.799999 48 49.200001 46.200001 49C 44.799999 48.799999 43.400002 49 42 49"></path><path d="M 13 10.998L 55 10.998C 55 10.998 57 10.998 57 12.998L 57 54.998001C 57 54.998001 57 56.998001 55 56.998001L 13 56.998001C 13 56.998001 11 56.998001 11 54.998001L 11 12.998C 11 12.998 11 10.998 13 10.998M 18 48.998001L 26 32.998001M 26 48.998001L 18 32.998001M 30 33L 30 46C 30 47.656857 31.343147 49 33 49L 38 49M 50 33L 45.708 33C 43.988789 33.000622 42.49548 34.182915 42.100517 35.856148C 41.705551 37.529373 42.512539 39.254646 44.049999 40.024002L 47.950001 41.973999C 49.489811 42.742203 50.298763 44.46883 49.903545 46.143627C 49.508324 47.818424 48.012798 49.00124 46.292 49L 42 49"></path></g></g></g><g id="g-root-tx_traditio_18fovqi1muxqti-stroke" data-item-order="1000000000" data-item-id="tx_traditio_18fovqi1muxqti" data-item-class="Label Stroke Indexed ColorStrokeBlack" data-item-index="none" data-renderer-id="0" transform="translate(2, 230.99996948242188)"></g><g id="g-root-tx_traditio_18fovqi1muxqti-stroke" data-item-order="1000000000" data-item-id="tx_traditio_18fovqi1muxqti" data-item-class="Label Stroke Indexed ColorStrokeBlack" data-item-index="none" data-renderer-id="0" transform="translate(2, 230.99996948242188)"></g><g id="g-root-tx_deeplear_18fovqi1muxqtj-stroke" data-item-order="1000000000" data-item-id="tx_deeplear_18fovqi1muxqtj" data-item-class="Label Stroke Indexed ColorStrokeBlack" data-item-index="none" data-renderer-id="0" transform="translate(338, 230.99996948242188)"></g><g id="g-root-tx_structur_1q6yw8a1muxogb-stroke" data-item-order="1000000000" data-item-id="tx_structur_1q6yw8a1muxogb" data-item-class="Label Stroke Indexed ColorStrokeBlack" data-item-index="2" data-renderer-id="0" transform="translate(8, 2.999969482421875)"></g><g id="g-root-tx_automati_1lr5e3u1muxp8k-stroke" data-item-order="1000000000" data-item-id="tx_automati_1lr5e3u1muxp8k" data-item-class="Label Stroke Indexed ColorStrokeBlack" data-item-index="6" data-renderer-id="0" transform="translate(392, 74.99996948242188)"></g></g></g></svg>